<?xml version="1.0" standalone="no"?>
<!DOCTYPE svg PUBLIC "-//W3C//DTD SVG 20010904//EN"
 "http://www.w3.org/TR/2001/REC-SVG-20010904/DTD/svg10.dtd">
<svg version="1.0" xmlns="http://www.w3.org/2000/svg"
 width="712.000000pt" height="712.000000pt" viewBox="0 0 712.000000 712.000000"
 preserveAspectRatio="xMidYMid meet">
<metadata>
Created by potrace 1.11, written by Peter Selinger 2001-2013
</metadata>
<g transform="translate(0.000000,712.000000) scale(0.100000,-0.100000)"
fill="#000000" stroke="none">
<path d="M3400 7103 c-1079 -59 -2049 -581 -2691 -1448 -283 -382 -497 -855
-604 -1330 -189 -844 -55 -1764 366 -2508 553 -978 1507 -1629 2619 -1787 178
-26 761 -29 941 -5 1176 154 2195 879 2727 1941 159 316 264 642 329 1019 27
157 28 168 28 560 0 437 -4 478 -67 770 -294 1361 -1389 2441 -2757 2720 -290
59 -612 84 -891 68z m-973 -2641 c34 -11 88 -34 120 -51 l58 -32 35 40 c20 23
41 41 48 41 9 0 12 -53 12 -220 0 -249 -5 -263 -55 -153 -116 260 -312 396
-522 363 -191 -31 -293 -148 -292 -335 0 -121 42 -194 152 -262 72 -46 98 -56
312 -130 210 -72 276 -106 352 -177 142 -132 182 -355 95 -535 -40 -83 -135
-174 -224 -215 -208 -96 -545 -94 -755 4 l-63 29 -39 -47 c-22 -25 -42 -44
-44 -42 -2 3 -7 112 -11 243 -6 199 -5 237 7 237 8 0 20 -19 28 -42 21 -65
114 -206 177 -271 130 -134 334 -183 506 -122 94 33 153 84 196 170 32 63 35
77 35 155 0 187 -80 260 -411 373 -202 70 -264 96 -330 143 -239 169 -265 522
-54 717 68 64 143 103 244 129 97 24 331 19 423 -10z m1303 -6 c0 -8 -15 -16
-37 -19 -68 -11 -126 -48 -153 -97 l-25 -45 0 -707 c0 -697 0 -707 21 -735 24
-34 95 -71 154 -81 24 -4 45 -13 48 -20 3 -9 -76 -12 -363 -12 -286 0 -366 3
-363 12 3 7 23 16 45 21 57 11 145 66 162 102 21 44 30 291 30 861 1 501 -4
577 -37 624 -23 31 -99 70 -152 77 -24 4 -40 11 -40 19 0 12 61 14 355 14 294
0 355 -2 355 -14z m1271 -9 c141 -33 283 -135 334 -241 53 -112 56 -257 6
-362 -53 -111 -136 -183 -285 -248 l-73 -32 56 -51 c37 -33 111 -130 221 -289
226 -328 311 -411 457 -448 26 -7 48 -17 51 -24 3 -9 -55 -12 -240 -12 l-244
0 -31 33 c-17 17 -89 118 -159 222 -156 233 -220 318 -312 415 -91 98 -152
132 -249 138 l-73 5 1 -184 c1 -274 12 -458 32 -495 26 -51 102 -92 200 -109
20 -3 37 -10 37 -15 0 -6 -147 -10 -386 -10 -286 0 -385 3 -382 11 2 7 27 18
56 25 98 25 144 61 164 127 10 32 13 197 13 727 0 630 -1 688 -17 717 -22 39
-68 68 -133 83 -73 17 -77 19 -69 31 11 18 941 6 1025 -14z"/>
<path d="M4538 4432 l-57 -3 -6 -52 c-3 -29 -7 -218 -8 -422 l-2 -370 95 3
c261 10 433 96 506 255 27 57 29 71 29 177 0 106 -2 120 -28 172 -83 169 -272
255 -529 240z"/>
</g>
</svg>
